<mxfile host="app.diagrams.net" modified="2023-05-23T17:45:51.393Z" agent="Mozilla/5.0 (Windows NT 10.0; Win64; x64) AppleWebKit/537.36 (KHTML, like Gecko) Chrome/113.0.0.0 Safari/537.36" etag="uDfFgizUgkz-m8mJ8BLP" version="21.3.3" type="device">
  <diagram id="R2lEEEUBdFMjLlhIrx00" name="Page-1">
    <mxGraphModel dx="989" dy="543" grid="1" gridSize="10" guides="1" tooltips="1" connect="1" arrows="1" fold="1" page="1" pageScale="1" pageWidth="827" pageHeight="1169" math="0" shadow="0" extFonts="Permanent Marker^https://fonts.googleapis.com/css?family=Permanent+Marker">
      <root>
        <mxCell id="0" />
        <mxCell id="1" parent="0" />
        <mxCell id="Z7V5hlukMa3mrpPiw7XR-44" value="" style="rounded=0;whiteSpace=wrap;html=1;strokeColor=default;fontFamily=Times New Roman;fontSize=18;fontColor=default;fillColor=default;strokeWidth=0.75;" parent="1" vertex="1">
          <mxGeometry y="50" width="490" height="450" as="geometry" />
        </mxCell>
        <mxCell id="Z7V5hlukMa3mrpPiw7XR-5" value="" style="rounded=0;whiteSpace=wrap;html=1;fontSize=18;fontFamily=Times New Roman;strokeWidth=0.75;" parent="1" vertex="1">
          <mxGeometry x="460" y="530" width="360" height="240" as="geometry" />
        </mxCell>
        <mxCell id="Z7V5hlukMa3mrpPiw7XR-36" style="rounded=0;orthogonalLoop=1;jettySize=auto;html=1;exitX=0.5;exitY=0;exitDx=0;exitDy=0;fontFamily=Times New Roman;fontSize=18;fontColor=default;startArrow=classic;startFill=1;entryX=1;entryY=0.5;entryDx=0;entryDy=0;strokeWidth=0.75;edgeStyle=orthogonalEdgeStyle;" parent="1" source="Z7V5hlukMa3mrpPiw7XR-5" target="Z7V5hlukMa3mrpPiw7XR-44" edge="1">
          <mxGeometry relative="1" as="geometry">
            <mxPoint x="490" y="283" as="targetPoint" />
          </mxGeometry>
        </mxCell>
        <mxCell id="Z7V5hlukMa3mrpPiw7XR-1" value="Приложение клиентской части" style="rounded=0;whiteSpace=wrap;html=1;fontSize=18;fontFamily=Times New Roman;strokeWidth=0.75;" parent="1" vertex="1">
          <mxGeometry x="502.25" y="560" width="275.5" height="160.5" as="geometry" />
        </mxCell>
        <mxCell id="Z7V5hlukMa3mrpPiw7XR-2" value="" style="rounded=0;whiteSpace=wrap;html=1;fontSize=18;fontFamily=Times New Roman;strokeWidth=0.75;" parent="1" vertex="1">
          <mxGeometry x="10" y="75" width="470" height="415" as="geometry" />
        </mxCell>
        <mxCell id="Z7V5hlukMa3mrpPiw7XR-3" value="Подсистема отображения" style="text;html=1;strokeColor=none;fillColor=none;align=center;verticalAlign=middle;whiteSpace=wrap;rounded=0;fontSize=18;fontFamily=Times New Roman;strokeWidth=0.75;" parent="1" vertex="1">
          <mxGeometry x="566.5" y="689" width="200" height="40" as="geometry" />
        </mxCell>
        <mxCell id="Z7V5hlukMa3mrpPiw7XR-4" value="Веб-браузер" style="text;html=1;strokeColor=none;fillColor=none;align=center;verticalAlign=middle;whiteSpace=wrap;rounded=0;fontSize=18;fontFamily=Times New Roman;strokeWidth=0.75;" parent="1" vertex="1">
          <mxGeometry x="570" y="530" width="140" height="30" as="geometry" />
        </mxCell>
        <mxCell id="Z7V5hlukMa3mrpPiw7XR-7" value="Web API приложение" style="text;html=1;strokeColor=none;fillColor=none;align=left;verticalAlign=middle;whiteSpace=wrap;rounded=0;fontFamily=Times New Roman;fontSize=18;strokeWidth=0.75;" parent="1" vertex="1">
          <mxGeometry x="27.5" y="90" width="152.5" height="30" as="geometry" />
        </mxCell>
        <mxCell id="Z7V5hlukMa3mrpPiw7XR-8" value="ASP.NET Core 6, EF Core 6, Hangfire" style="text;html=1;strokeColor=none;fillColor=none;align=left;verticalAlign=middle;whiteSpace=wrap;rounded=0;fontFamily=Times New Roman;fontSize=18;strokeWidth=0.75;" parent="1" vertex="1">
          <mxGeometry x="190" y="90" width="310" height="30" as="geometry" />
        </mxCell>
        <mxCell id="Z7V5hlukMa3mrpPiw7XR-9" value="" style="shape=cylinder3;whiteSpace=wrap;html=1;boundedLbl=1;backgroundOutline=1;size=15;fontFamily=Times New Roman;fontSize=18;strokeWidth=0.75;" parent="1" vertex="1">
          <mxGeometry x="115" y="540" width="250" height="220" as="geometry" />
        </mxCell>
        <mxCell id="Z7V5hlukMa3mrpPiw7XR-12" value="TCP" style="text;html=1;strokeColor=none;fillColor=none;align=center;verticalAlign=middle;whiteSpace=wrap;rounded=0;fontFamily=Times New Roman;fontSize=18;strokeWidth=0.75;" parent="1" vertex="1">
          <mxGeometry x="229" y="500" width="60" height="30" as="geometry" />
        </mxCell>
        <mxCell id="Z7V5hlukMa3mrpPiw7XR-13" value="Подсистема хранения и обработки информации" style="text;html=1;strokeColor=none;fillColor=none;align=center;verticalAlign=middle;whiteSpace=wrap;rounded=0;fontFamily=Times New Roman;fontSize=18;strokeWidth=0.75;" parent="1" vertex="1">
          <mxGeometry x="143.75" y="590" width="192.5" height="45" as="geometry" />
        </mxCell>
        <mxCell id="Z7V5hlukMa3mrpPiw7XR-14" value="(База данных)" style="text;html=1;strokeColor=none;fillColor=none;align=center;verticalAlign=middle;whiteSpace=wrap;rounded=0;fontFamily=Times New Roman;fontSize=18;strokeWidth=0.75;" parent="1" vertex="1">
          <mxGeometry x="185" y="660" width="110" height="30" as="geometry" />
        </mxCell>
        <mxCell id="Z7V5hlukMa3mrpPiw7XR-15" value="MS SQL Server 2019" style="text;html=1;strokeColor=none;fillColor=none;align=center;verticalAlign=middle;whiteSpace=wrap;rounded=0;fontFamily=Times New Roman;fontSize=18;strokeWidth=0.75;" parent="1" vertex="1">
          <mxGeometry x="162.5" y="694" width="155" height="30" as="geometry" />
        </mxCell>
        <mxCell id="Z7V5hlukMa3mrpPiw7XR-16" value="React, Redux" style="text;html=1;strokeColor=none;fillColor=none;align=center;verticalAlign=middle;whiteSpace=wrap;rounded=0;fontFamily=Times New Roman;fontSize=18;strokeWidth=0.75;" parent="1" vertex="1">
          <mxGeometry x="661" y="679" width="113" height="30" as="geometry" />
        </mxCell>
        <mxCell id="Z7V5hlukMa3mrpPiw7XR-17" value="Подсистема управления" style="text;html=1;strokeColor=none;fillColor=none;align=left;verticalAlign=middle;whiteSpace=wrap;rounded=0;fontFamily=Times New Roman;fontSize=18;strokeWidth=0.75;" parent="1" vertex="1">
          <mxGeometry x="27.5" y="142" width="80" height="30" as="geometry" />
        </mxCell>
        <mxCell id="Z7V5hlukMa3mrpPiw7XR-20" value="Google Chrome" style="text;html=1;strokeColor=none;fillColor=none;align=center;verticalAlign=middle;whiteSpace=wrap;rounded=0;fontFamily=Times New Roman;fontSize=18;strokeWidth=0.75;" parent="1" vertex="1">
          <mxGeometry x="693" y="740" width="127" height="30" as="geometry" />
        </mxCell>
        <mxCell id="Z7V5hlukMa3mrpPiw7XR-29" style="edgeStyle=orthogonalEdgeStyle;rounded=0;orthogonalLoop=1;jettySize=auto;html=1;entryX=1;entryY=0.5;entryDx=0;entryDy=0;fontFamily=Times New Roman;fontSize=18;fontColor=default;startArrow=classic;startFill=1;strokeWidth=0.75;" parent="1" source="Z7V5hlukMa3mrpPiw7XR-21" target="Z7V5hlukMa3mrpPiw7XR-22" edge="1">
          <mxGeometry relative="1" as="geometry" />
        </mxCell>
        <mxCell id="Z7V5hlukMa3mrpPiw7XR-21" value="ПО промежуточного слоя" style="rounded=0;whiteSpace=wrap;html=1;fontFamily=Times New Roman;fontSize=18;strokeWidth=0.75;" parent="1" vertex="1">
          <mxGeometry x="300" y="142" width="170" height="58" as="geometry" />
        </mxCell>
        <mxCell id="Z7V5hlukMa3mrpPiw7XR-30" style="edgeStyle=orthogonalEdgeStyle;rounded=0;orthogonalLoop=1;jettySize=auto;html=1;exitX=0;exitY=0.5;exitDx=0;exitDy=0;entryX=0.5;entryY=0;entryDx=0;entryDy=0;fontFamily=Times New Roman;fontSize=18;fontColor=default;startArrow=classic;startFill=1;strokeWidth=0.75;" parent="1" source="Z7V5hlukMa3mrpPiw7XR-22" target="Z7V5hlukMa3mrpPiw7XR-23" edge="1">
          <mxGeometry relative="1" as="geometry">
            <Array as="points">
              <mxPoint x="130" y="171" />
              <mxPoint x="130" y="210" />
              <mxPoint x="120" y="210" />
            </Array>
          </mxGeometry>
        </mxCell>
        <mxCell id="Z7V5hlukMa3mrpPiw7XR-22" value="Контроллеры" style="rounded=0;whiteSpace=wrap;html=1;fontFamily=Times New Roman;fontSize=18;strokeWidth=0.75;" parent="1" vertex="1">
          <mxGeometry x="150" y="146" width="120" height="50" as="geometry" />
        </mxCell>
        <mxCell id="Z7V5hlukMa3mrpPiw7XR-31" style="edgeStyle=orthogonalEdgeStyle;rounded=0;orthogonalLoop=1;jettySize=auto;html=1;exitX=0.5;exitY=1;exitDx=0;exitDy=0;entryX=0.5;entryY=0;entryDx=0;entryDy=0;fontFamily=Times New Roman;fontSize=18;fontColor=default;startArrow=classic;startFill=1;strokeWidth=0.75;" parent="1" source="Z7V5hlukMa3mrpPiw7XR-23" target="Z7V5hlukMa3mrpPiw7XR-24" edge="1">
          <mxGeometry relative="1" as="geometry" />
        </mxCell>
        <mxCell id="Z7V5hlukMa3mrpPiw7XR-39" style="edgeStyle=orthogonalEdgeStyle;rounded=0;orthogonalLoop=1;jettySize=auto;html=1;exitX=0.75;exitY=0;exitDx=0;exitDy=0;entryX=0.5;entryY=1;entryDx=0;entryDy=0;fontFamily=Times New Roman;fontSize=18;fontColor=default;strokeWidth=0.75;" parent="1" source="Z7V5hlukMa3mrpPiw7XR-23" target="Z7V5hlukMa3mrpPiw7XR-21" edge="1">
          <mxGeometry relative="1" as="geometry" />
        </mxCell>
        <mxCell id="Z7V5hlukMa3mrpPiw7XR-23" value="Сервисы" style="rounded=0;whiteSpace=wrap;html=1;fontFamily=Times New Roman;fontSize=18;strokeWidth=0.75;" parent="1" vertex="1">
          <mxGeometry x="60" y="250" width="120" height="60" as="geometry" />
        </mxCell>
        <mxCell id="Z7V5hlukMa3mrpPiw7XR-27" style="edgeStyle=orthogonalEdgeStyle;rounded=0;orthogonalLoop=1;jettySize=auto;html=1;exitX=0.5;exitY=1;exitDx=0;exitDy=0;entryX=0.5;entryY=0;entryDx=0;entryDy=0;entryPerimeter=0;startArrow=classic;startFill=1;fontFamily=Times New Roman;fontSize=18;strokeWidth=0.75;" parent="1" source="Z7V5hlukMa3mrpPiw7XR-24" target="Z7V5hlukMa3mrpPiw7XR-9" edge="1">
          <mxGeometry relative="1" as="geometry" />
        </mxCell>
        <mxCell id="Z7V5hlukMa3mrpPiw7XR-24" value="" style="rounded=0;whiteSpace=wrap;html=1;fontFamily=Times New Roman;fontSize=18;strokeWidth=0.75;" parent="1" vertex="1">
          <mxGeometry x="133.75" y="360" width="212.5" height="100" as="geometry" />
        </mxCell>
        <mxCell id="Z7V5hlukMa3mrpPiw7XR-25" value="ORM EF Core" style="rounded=0;whiteSpace=wrap;html=1;fontFamily=Times New Roman;fontSize=18;strokeWidth=0.75;" parent="1" vertex="1">
          <mxGeometry x="180" y="410" width="120" height="41" as="geometry" />
        </mxCell>
        <mxCell id="Z7V5hlukMa3mrpPiw7XR-26" value="Репозитории" style="text;html=1;strokeColor=none;fillColor=none;align=center;verticalAlign=middle;whiteSpace=wrap;rounded=0;fontFamily=Times New Roman;fontSize=18;strokeWidth=0.75;" parent="1" vertex="1">
          <mxGeometry x="200" y="370" width="80" height="30" as="geometry" />
        </mxCell>
        <mxCell id="Z7V5hlukMa3mrpPiw7XR-33" style="edgeStyle=orthogonalEdgeStyle;rounded=0;orthogonalLoop=1;jettySize=auto;html=1;entryX=1;entryY=0.5;entryDx=0;entryDy=0;fontFamily=Times New Roman;fontSize=18;fontColor=default;strokeWidth=0.75;" parent="1" source="Z7V5hlukMa3mrpPiw7XR-32" target="Z7V5hlukMa3mrpPiw7XR-23" edge="1">
          <mxGeometry relative="1" as="geometry" />
        </mxCell>
        <mxCell id="Z7V5hlukMa3mrpPiw7XR-32" value="Фоновые работы" style="rounded=0;whiteSpace=wrap;html=1;strokeColor=default;fontFamily=Times New Roman;fontSize=18;fontColor=default;fillColor=default;strokeWidth=0.75;" parent="1" vertex="1">
          <mxGeometry x="270" y="250" width="120" height="60" as="geometry" />
        </mxCell>
        <mxCell id="Z7V5hlukMa3mrpPiw7XR-41" value="&lt;font style=&quot;font-size: 18px;&quot;&gt;HTTPS&lt;/font&gt;" style="text;html=1;align=center;verticalAlign=middle;resizable=0;points=[];autosize=1;strokeColor=none;fillColor=none;fontSize=18;fontFamily=Times New Roman;fontColor=default;strokeWidth=0.75;" parent="1" vertex="1">
          <mxGeometry x="580" y="236" width="80" height="40" as="geometry" />
        </mxCell>
        <mxCell id="Z7V5hlukMa3mrpPiw7XR-45" value="IIS Server&amp;nbsp;" style="text;html=1;strokeColor=none;fillColor=none;align=center;verticalAlign=middle;whiteSpace=wrap;rounded=0;fontSize=18;fontFamily=Times New Roman;fontColor=default;strokeWidth=0.75;" parent="1" vertex="1">
          <mxGeometry x="12.5" y="50" width="110" height="30" as="geometry" />
        </mxCell>
      </root>
    </mxGraphModel>
  </diagram>
</mxfile>
